<svg width="23" height="25" viewBox="0 0 23 25" fill="none" xmlns="http://www.w3.org/2000/svg">
<path d="M20.6602 0.3255H19.3268H3.32682H1.99349C1.19349 0.3255 0.660156 0.858834 0.660156 1.65883C0.660156 2.45883 1.19349 2.99217 1.99349 2.99217V21.7922C1.99349 22.7255 2.52682 23.6588 3.46016 24.1922C3.86016 24.4588 4.26016 24.4588 4.66016 24.4588C5.19349 24.4588 5.72682 24.3255 6.12682 24.0588L11.3268 20.5922L16.5268 24.0588C17.3268 24.5922 18.3935 24.7255 19.3268 24.1922C20.2602 23.7922 20.7935 22.8588 20.7935 21.7922V2.99217C21.5935 2.99217 22.1268 2.45883 22.1268 1.65883C22.1268 0.858834 21.4602 0.3255 20.6602 0.3255ZM17.9935 21.7922L12.7935 18.3255C12.3935 18.0588 11.8602 17.9255 11.3268 17.9255C10.7935 17.9255 10.2602 18.0588 9.86016 18.3255L4.66016 21.7922V2.99217H17.9935V21.7922Z" fill="#14043C"/>
</svg>
