<svg width="26" height="27" viewBox="0 0 26 27" fill="none" xmlns="http://www.w3.org/2000/svg">
<path d="M18.1783 14.3422C20.089 12.8802 21.3263 10.5835 21.3263 7.99219C21.3263 3.57419 17.7443 -0.0078125 13.3263 -0.0078125C8.90833 -0.0078125 5.32633 3.57419 5.32633 7.99219C5.32633 10.5835 6.56367 12.8802 8.47433 14.3422C3.88633 16.3462 0.659668 21.1022 0.659668 26.6589H25.993C25.993 21.1022 22.7663 16.3462 18.1783 14.3422ZM7.993 7.99219C7.993 5.05152 10.3857 2.65885 13.3263 2.65885C16.267 2.65885 18.6597 5.05152 18.6597 7.99219C18.6597 10.9329 16.267 13.3255 13.3263 13.3255C10.3857 13.3255 7.993 10.9329 7.993 7.99219ZM13.3263 15.9922C17.9777 15.9922 21.897 19.3969 23.0097 23.9922H3.643C4.75567 19.3969 8.675 15.9922 13.3263 15.9922Z" fill="white"/>
</svg>
