<svg width="32" height="32" viewBox="0 0 32 32" fill="none" xmlns="http://www.w3.org/2000/svg">
<path d="M7.45915 5.43661H30.3262L27.2151 16.3255H9.13439M28.7706 22.5477H10.1039L6.99284 2.3255H2.32617M11.6595 28.7699C11.6595 29.6291 10.9631 30.3255 10.1039 30.3255C9.24485 30.3255 8.54839 29.6291 8.54839 28.7699C8.54839 27.9108 9.24485 27.2144 10.1039 27.2144C10.9631 27.2144 11.6595 27.9108 11.6595 28.7699ZM28.7706 28.7699C28.7706 29.6291 28.0742 30.3255 27.2151 30.3255C26.3559 30.3255 25.6595 29.6291 25.6595 28.7699C25.6595 27.9108 26.3559 27.2144 27.2151 27.2144C28.0742 27.2144 28.7706 27.9108 28.7706 28.7699Z" stroke="white" stroke-width="2.7" stroke-linecap="round" stroke-linejoin="round"/>
</svg>
