<svg width="33" height="33" viewBox="0 0 33 33" fill="none" xmlns="http://www.w3.org/2000/svg">
<path d="M25.6597 4.3255H24.3263H8.32633H6.993C6.193 4.3255 5.65967 4.85883 5.65967 5.65883C5.65967 6.45883 6.193 6.99217 6.993 6.99217V25.7922C6.993 26.7255 7.52633 27.6588 8.45967 28.1922C8.85967 28.4588 9.25967 28.4588 9.65967 28.4588C10.193 28.4588 10.7263 28.3255 11.1263 28.0588L16.3263 24.5922L21.5263 28.0588C22.3263 28.5922 23.393 28.7255 24.3263 28.1922C25.2597 27.7922 25.793 26.8588 25.793 25.7922V6.99217C26.593 6.99217 27.1263 6.45883 27.1263 5.65883C27.1263 4.85883 26.4597 4.3255 25.6597 4.3255ZM22.993 25.7922L17.793 22.3255C17.393 22.0588 16.8597 21.9255 16.3263 21.9255C15.793 21.9255 15.2597 22.0588 14.8597 22.3255L9.65967 25.7922V6.99217H22.993V25.7922Z" fill="white"/>
</svg>
